<?xml version="1.0" encoding="UTF-8"?>
<!DOCTYPE svg PUBLIC "-//W3C//DTD SVG 1.1//EN" "http://www.w3.org/Graphics/SVG/1.1/DTD/svg11.dtd">
<svg xmlns="http://www.w3.org/2000/svg" version="1.1" width="2560px" height="2560px" style="shape-rendering:geometricPrecision; text-rendering:geometricPrecision; image-rendering:optimizeQuality; fill-rule:evenodd; clip-rule:evenodd" xmlns:xlink="http://www.w3.org/1999/xlink">
<g><path style="opacity:1" fill="#212121" d="M -0.5,-0.5 C 852.833,-0.5 1706.17,-0.5 2559.5,-0.5C 2559.5,852.833 2559.5,1706.17 2559.5,2559.5C 1706.17,2559.5 852.833,2559.5 -0.5,2559.5C -0.5,1706.17 -0.5,852.833 -0.5,-0.5 Z"/></g>
<g><path style="opacity:1" fill="#23201d" d="M 1599.5,992.5 C 1601.03,991.212 1602.7,991.212 1604.5,992.5C 1604.29,993.086 1603.96,993.586 1603.5,994C 1604.51,996.172 1606.18,997.338 1608.5,997.5C 1607.77,995.401 1607.77,993.401 1608.5,991.5C 1610.28,994.948 1612.45,994.948 1615,991.5C 1615.48,992.448 1615.65,993.448 1615.5,994.5C 1627.52,994.832 1639.52,994.499 1651.5,993.5C 1650.97,992.808 1650.31,992.308 1649.5,992C 1651.64,991.365 1653.64,991.699 1655.5,993C 1655.17,993.333 1654.83,993.667 1654.5,994C 1657.48,994.498 1660.48,994.665 1663.5,994.5C 1663.5,995.5 1663.5,996.5 1663.5,997.5C 1652.86,996.828 1642.2,996.828 1631.5,997.5C 1625.04,997.37 1618.71,996.703 1612.5,995.5C 1613.09,999.074 1611.59,1001.07 1608,1001.5C 1607.67,1003.5 1607.33,1005.5 1607,1007.5C 1606.99,1078.92 1606.33,1150.25 1605,1221.5C 1604.83,1150.16 1604.33,1078.83 1603.5,1007.5C 1602.83,1076.83 1602.17,1146.17 1601.5,1215.5C 1600.83,1144.27 1600.17,1073.1 1599.5,1002C 1600.03,1001.31 1600.69,1000.81 1601.5,1000.5C 1602.15,1002.62 1602.98,1004.62 1604,1006.5C 1605.37,1004.06 1605.87,1001.4 1605.5,998.5C 1603.83,998.5 1602.17,998.5 1600.5,998.5C 1600.3,996.61 1600.96,995.11 1602.5,994C 1601.76,992.961 1600.76,992.461 1599.5,992.5 Z"/></g>
<g><path style="opacity:1" fill="#fd9501" d="M 1799.5,1220.5 C 1799.83,1215.46 1799.49,1210.46 1798.5,1205.5C 1797.89,1205.62 1797.56,1205.96 1797.5,1206.5C 1794.47,1209.87 1791.14,1213.04 1787.5,1216C 1783.27,1218.27 1779.27,1220.77 1775.5,1223.5C 1772.5,1223.29 1769.84,1223.96 1767.5,1225.5C 1764.79,1225.58 1762.13,1225.91 1759.5,1226.5C 1751.15,1226.46 1742.82,1226.12 1734.5,1225.5C 1734.17,1225.5 1733.83,1225.5 1733.5,1225.5C 1730.29,1223.18 1726.62,1221.84 1722.5,1221.5C 1716.9,1219.68 1711.56,1217.18 1706.5,1214C 1692.46,1201.41 1683.46,1185.91 1679.5,1167.5C 1678.57,1152.86 1678.23,1138.2 1678.5,1123.5C 1682.49,1117.58 1684.99,1110.91 1686,1103.5C 1686.33,1104.17 1686.67,1104.83 1687,1105.5C 1687.19,1103.42 1687.69,1101.42 1688.5,1099.5C 1689.93,1102.46 1691.76,1105.12 1694,1107.5C 1694.68,1105.52 1694.18,1103.85 1692.5,1102.5C 1693.52,1100.57 1693.69,1098.57 1693,1096.5C 1692.08,1096.07 1691.25,1095.74 1690.5,1095.5C 1691.45,1092.57 1692.79,1089.91 1694.5,1087.5C 1712.21,1066.86 1734.88,1058.7 1762.5,1063C 1774.71,1065.6 1785.38,1071.1 1794.5,1079.5C 1795.5,1080.83 1796.5,1082.17 1797.5,1083.5C 1797.84,1084.34 1798.51,1084.67 1799.5,1084.5C 1800.5,1058.34 1800.83,1032.01 1800.5,1005.5C 1817.17,1005.5 1833.83,1005.5 1850.5,1005.5C 1850.5,1078.17 1850.5,1150.83 1850.5,1223.5C 1833.83,1223.5 1817.17,1223.5 1800.5,1223.5C 1800.74,1222.21 1800.4,1221.21 1799.5,1220.5 Z"/></g>
<g><path style="opacity:1" fill="#37230f" d="M 1798.5,1004.5 C 1798.83,1031.01 1798.5,1057.34 1797.5,1083.5C 1796.5,1082.17 1795.5,1080.83 1794.5,1079.5C 1795.5,1079.41 1796.33,1079.75 1797,1080.5C 1797.17,1055 1797.67,1029.66 1798.5,1004.5 Z"/></g>
<g><path style="opacity:1" fill="#272217" d="M 1852.5,1225.5 C 1852.5,1223.5 1852.5,1221.5 1852.5,1219.5C 1853.29,1220.61 1853.79,1221.94 1854,1223.5C 1854.33,1151.5 1854.67,1079.5 1855,1007.5C 1855.5,1080.17 1855.67,1152.83 1855.5,1225.5C 1854.5,1225.5 1853.5,1225.5 1852.5,1225.5 Z"/></g>
<g><path style="opacity:1" fill="#eb9316" d="M 1851.5,1004.5 C 1851.5,1077.83 1851.5,1151.17 1851.5,1224.5C 1834.17,1224.5 1816.83,1224.5 1799.5,1224.5C 1799.5,1223.17 1799.5,1221.83 1799.5,1220.5C 1800.4,1221.21 1800.74,1222.21 1800.5,1223.5C 1817.17,1223.5 1833.83,1223.5 1850.5,1223.5C 1850.5,1150.83 1850.5,1078.17 1850.5,1005.5C 1833.83,1005.5 1817.17,1005.5 1800.5,1005.5C 1800.83,1032.01 1800.5,1058.34 1799.5,1084.5C 1799.5,1057.83 1799.5,1031.17 1799.5,1004.5C 1816.83,1004.5 1834.17,1004.5 1851.5,1004.5 Z"/></g>
<g><path style="opacity:1" fill="#8c5815" d="M 1851.5,1003.5 C 1851.5,1003.83 1851.5,1004.17 1851.5,1004.5C 1834.17,1004.5 1816.83,1004.5 1799.5,1004.5C 1799.5,1031.17 1799.5,1057.83 1799.5,1084.5C 1798.51,1084.67 1797.84,1084.34 1797.5,1083.5C 1798.5,1057.34 1798.83,1031.01 1798.5,1004.5C 1815.99,1003.5 1833.66,1003.17 1851.5,1003.5 Z"/></g>
<g><path style="opacity:1" fill="#875517" d="M 1851.5,1004.5 C 1852.5,1074.66 1852.83,1145 1852.5,1215.5C 1852.5,1216.83 1852.5,1218.17 1852.5,1219.5C 1852.5,1221.5 1852.5,1223.5 1852.5,1225.5C 1834.5,1225.5 1816.5,1225.5 1798.5,1225.5C 1798.82,1218.98 1798.49,1212.64 1797.5,1206.5C 1797.56,1205.96 1797.89,1205.62 1798.5,1205.5C 1799.49,1210.46 1799.83,1215.46 1799.5,1220.5C 1799.5,1221.83 1799.5,1223.17 1799.5,1224.5C 1816.83,1224.5 1834.17,1224.5 1851.5,1224.5C 1851.5,1151.17 1851.5,1077.83 1851.5,1004.5 Z"/></g>
<g><path style="opacity:1" fill="#3d270f" d="M 1348.5,1017.5 C 1348.5,1017.17 1348.5,1016.83 1348.5,1016.5C 1356.02,1015.81 1363.02,1017.14 1369.5,1020.5C 1362.52,1019.28 1355.52,1018.28 1348.5,1017.5 Z"/></g>
<g><path style="opacity:1" fill="#fd9501" d="M 1348.5,1017.5 C 1355.52,1018.28 1362.52,1019.28 1369.5,1020.5C 1372.08,1021.49 1374.74,1022.49 1377.5,1023.5C 1379.94,1025.13 1382.61,1026.46 1385.5,1027.5C 1397.46,1033.78 1405.79,1043.12 1410.5,1055.5C 1411.35,1062.8 1411.68,1070.13 1411.5,1077.5C 1407.62,1093.62 1398.29,1105.29 1383.5,1112.5C 1381.35,1112.37 1379.35,1112.87 1377.5,1114C 1378.24,1115.04 1379.24,1115.54 1380.5,1115.5C 1387.03,1117.1 1393.03,1119.77 1398.5,1123.5C 1399.58,1125.59 1401.25,1126.92 1403.5,1127.5C 1411.96,1136.09 1416.96,1146.42 1418.5,1158.5C 1418.72,1166.92 1418.05,1175.25 1416.5,1183.5C 1414.93,1186.31 1413.6,1189.31 1412.5,1192.5C 1410.67,1194.15 1409.34,1196.15 1408.5,1198.5C 1397.21,1211.15 1383.21,1219.15 1366.5,1222.5C 1365.17,1222.5 1363.83,1222.5 1362.5,1222.5C 1320.51,1223.41 1278.51,1223.74 1236.5,1223.5C 1236.5,1154.83 1236.5,1086.17 1236.5,1017.5C 1273.83,1017.5 1311.17,1017.5 1348.5,1017.5 Z"/></g>
<g><path style="opacity:1" fill="#322613" d="M 1235.5,1016.5 C 1235.5,1086.17 1235.5,1155.83 1235.5,1225.5C 1234.5,1225.41 1233.67,1225.75 1233,1226.5C 1233.26,1227.95 1233.1,1229.28 1232.5,1230.5C 1231.17,1161.33 1231.17,1092.33 1232.5,1023.5C 1233.17,1290.17 1233.83,1290.17 1234.5,1023.5C 1234.2,1020.94 1234.53,1018.61 1235.5,1016.5 Z"/></g>
<g><path style="opacity:1" fill="#1c212c" d="M 1234.5,1023.5 C 1233.83,1290.17 1233.17,1290.17 1232.5,1023.5C 1232.34,1021.47 1232.5,1019.47 1233,1017.5C 1233.19,1019.71 1233.69,1021.71 1234.5,1023.5 Z"/></g>
<g><path style="opacity:1" fill="#b87414" d="M 1235.5,1016.5 C 1273.17,1016.5 1310.83,1016.5 1348.5,1016.5C 1348.5,1016.83 1348.5,1017.17 1348.5,1017.5C 1311.17,1017.5 1273.83,1017.5 1236.5,1017.5C 1236.5,1086.17 1236.5,1154.83 1236.5,1223.5C 1274,1224.5 1311.66,1224.83 1349.5,1224.5C 1311.67,1225.5 1273.67,1225.83 1235.5,1225.5C 1235.5,1155.83 1235.5,1086.17 1235.5,1016.5 Z"/></g>
<g><path style="opacity:1" fill="#995a08" d="M 1609.5,1003.5 C 1627.5,1003.5 1645.5,1003.5 1663.5,1003.5C 1663.5,1077.5 1663.5,1151.5 1663.5,1225.5C 1645.5,1225.5 1627.5,1225.5 1609.5,1225.5C 1609.5,1151.5 1609.5,1077.5 1609.5,1003.5 Z"/></g>
<g><path style="opacity:1" fill="#fe9500" d="M 1610.5,1005.5 C 1627.34,1004.87 1644,1005.53 1660.5,1007.5C 1661.5,1079.5 1661.83,1151.5 1661.5,1223.5C 1644.5,1223.5 1627.5,1223.5 1610.5,1223.5C 1610.5,1150.83 1610.5,1078.17 1610.5,1005.5 Z"/></g>
<g><path style="opacity:1" fill="#eb951e" d="M 1610.5,1005.5 C 1627.66,1004.5 1644.99,1004.17 1662.5,1004.5C 1662.5,1077.83 1662.5,1151.17 1662.5,1224.5C 1644.99,1224.83 1627.66,1224.5 1610.5,1223.5C 1627.5,1223.5 1644.5,1223.5 1661.5,1223.5C 1661.83,1151.5 1661.5,1079.5 1660.5,1007.5C 1644,1005.53 1627.34,1004.87 1610.5,1005.5 Z"/></g>
<g><path style="opacity:1" fill="#2d1f19" d="M 1851.5,1004.5 C 1851.5,1004.17 1851.5,1003.83 1851.5,1003.5C 1852.83,1003.5 1854.17,1003.5 1855.5,1003.5C 1853.85,1074.23 1852.85,1144.89 1852.5,1215.5C 1852.83,1145 1852.5,1074.66 1851.5,1004.5 Z"/></g>
<g><path style="opacity:1" fill="#664310" d="M 1377.5,1023.5 C 1380.87,1023.65 1383.53,1024.99 1385.5,1027.5C 1382.61,1026.46 1379.94,1025.13 1377.5,1023.5 Z"/></g>
<g><path style="opacity:1" fill="#aaacab" d="M 1073.5,1027.5 C 1010.83,1026.17 948.167,1026.17 885.5,1027.5C 884.833,1027.83 884.167,1028.17 883.5,1028.5C 883.414,1027.5 883.748,1026.67 884.5,1026C 947.836,1025.17 1011.17,1025.33 1074.5,1026.5C 1074.38,1027.11 1074.04,1027.44 1073.5,1027.5 Z"/></g>
<g><path style="opacity:1" fill="#dcdedd" d="M 885.5,1027.5 C 948.167,1026.17 1010.83,1026.17 1073.5,1027.5C 1073.17,1028.5 1072.5,1029.17 1071.5,1029.5C 1009.84,1027.5 947.842,1026.84 885.5,1027.5 Z"/></g>
<g><path style="opacity:1" fill="#fefefe" d="M 885.5,1027.5 C 947.842,1026.84 1009.84,1027.5 1071.5,1029.5C 1057.14,1048.85 1042.81,1068.19 1028.5,1087.5C 1026.41,1088.58 1025.08,1090.25 1024.5,1092.5C 975.79,1155.88 927.456,1219.54 879.5,1283.5C 817.125,1283.83 754.792,1283.49 692.5,1282.5C 691.833,1281.17 690.833,1280.17 689.5,1279.5C 689.5,1279.17 689.5,1278.83 689.5,1278.5C 689.167,1195.33 689.501,1112.33 690.5,1029.5C 723.164,1071.33 755.997,1112.99 789,1154.5C 820.338,1112.34 851.838,1070.34 883.5,1028.5C 884.167,1028.17 884.833,1027.83 885.5,1027.5 Z"/></g>
<g><path style="opacity:1" fill="#404040" d="M 690.5,1028.5 C 689.167,1069.83 688.5,1111.49 688.5,1153.5C 688.5,1195.33 688.833,1237 689.5,1278.5C 689.5,1278.83 689.5,1279.17 689.5,1279.5C 687.503,1195.84 686.836,1111.84 687.5,1027.5C 688.791,1027.26 689.791,1027.6 690.5,1028.5 Z"/></g>
<g><path style="opacity:1" fill="#c97d20" d="M 1290.5,1059.5 C 1306.66,1058.34 1322.99,1058.17 1339.5,1059C 1341.85,1059.24 1343.85,1060.07 1345.5,1061.5C 1343.14,1061.33 1340.81,1060.99 1338.5,1060.5C 1322.68,1059.5 1306.68,1059.17 1290.5,1059.5 Z"/></g>
<g><path style="opacity:1" fill="#fc9502" d="M 1528.5,1063.5 C 1535.93,1066.14 1543.59,1068.48 1551.5,1070.5C 1590.47,1092.58 1604.3,1125.58 1593,1169.5C 1589.31,1180.55 1583.81,1190.55 1576.5,1199.5C 1574.41,1200.58 1573.08,1202.25 1572.5,1204.5C 1561.49,1213.29 1549.15,1219.62 1535.5,1223.5C 1521.98,1226.07 1508.31,1227.07 1494.5,1226.5C 1486.43,1225.69 1478.76,1223.69 1471.5,1220.5C 1469.37,1217.6 1466.37,1216.1 1462.5,1216C 1461.83,1215 1461.17,1214 1460.5,1213C 1457.59,1212.72 1454.92,1211.89 1452.5,1210.5C 1442.35,1203.36 1434.35,1194.36 1428.5,1183.5C 1426.22,1178.4 1424.56,1173.07 1423.5,1167.5C 1423.43,1164.57 1422.77,1161.91 1421.5,1159.5C 1421.5,1158.17 1421.5,1156.83 1421.5,1155.5C 1421.29,1144.81 1421.62,1134.14 1422.5,1123.5C 1424.85,1114.45 1428.18,1105.79 1432.5,1097.5C 1436.63,1093.19 1440.63,1088.69 1444.5,1084C 1449.02,1080.58 1453.69,1077.41 1458.5,1074.5C 1462.73,1073.21 1466.73,1071.54 1470.5,1069.5C 1472.41,1067.68 1474.74,1066.52 1477.5,1066C 1494.33,1062.29 1511.33,1061.46 1528.5,1063.5 Z"/></g>
<g><path style="opacity:1" fill="#212120" d="M 1338.5,1060.5 C 1340.81,1060.99 1343.14,1061.33 1345.5,1061.5C 1346.94,1063.06 1348.61,1064.4 1350.5,1065.5C 1351.1,1068.7 1352.27,1071.7 1354,1074.5C 1354.63,1078.87 1354.46,1083.2 1353.5,1087.5C 1351.44,1091.89 1348.11,1094.89 1343.5,1096.5C 1340.58,1096.28 1337.91,1096.95 1335.5,1098.5C 1328.87,1097.17 1321.87,1096.5 1314.5,1096.5C 1307.13,1096.5 1300.13,1097.17 1293.5,1098.5C 1291.52,1086.21 1290.85,1073.54 1291.5,1060.5C 1307.17,1060.5 1322.83,1060.5 1338.5,1060.5 Z"/></g>
<g><path style="opacity:1" fill="#3b2910" d="M 1528.5,1063.5 C 1533.71,1063.77 1538.71,1064.77 1543.5,1066.5C 1544.69,1066.24 1545.86,1065.91 1547,1065.5C 1547.65,1067.4 1549.15,1069.07 1551.5,1070.5C 1543.59,1068.48 1535.93,1066.14 1528.5,1063.5 Z"/></g>
<g><path style="opacity:1" fill="#3e2811" d="M 1350.5,1065.5 C 1352.22,1067.25 1353.72,1069.25 1355,1071.5C 1355.67,1076.17 1355.67,1080.83 1355,1085.5C 1354.72,1086.42 1354.22,1087.08 1353.5,1087.5C 1354.46,1083.2 1354.63,1078.87 1354,1074.5C 1352.27,1071.7 1351.1,1068.7 1350.5,1065.5 Z"/></g>
<g><path style="opacity:1" fill="#53350e" d="M 1410.5,1055.5 C 1410.83,1055.5 1411.17,1055.5 1411.5,1055.5C 1412.74,1062.98 1412.74,1070.31 1411.5,1077.5C 1411.68,1070.13 1411.35,1062.8 1410.5,1055.5 Z"/></g>
<g><path style="opacity:1" fill="#adadad" d="M 690.5,1028.5 C 690.5,1028.83 690.5,1029.17 690.5,1029.5C 689.501,1112.33 689.167,1195.33 689.5,1278.5C 688.833,1237 688.5,1195.33 688.5,1153.5C 688.5,1111.49 689.167,1069.83 690.5,1028.5 Z"/></g>
<g><path style="opacity:1" fill="#311d08" d="M 1290.5,1059.5 C 1306.68,1059.17 1322.68,1059.5 1338.5,1060.5C 1322.83,1060.5 1307.17,1060.5 1291.5,1060.5C 1290.85,1073.54 1291.52,1086.21 1293.5,1098.5C 1307.5,1098.5 1321.5,1098.5 1335.5,1098.5C 1337.91,1096.95 1340.58,1096.28 1343.5,1096.5C 1343.5,1096.83 1343.5,1097.17 1343.5,1097.5C 1341.35,1097.37 1339.35,1097.87 1337.5,1099C 1321.84,1099.5 1306.17,1099.67 1290.5,1099.5C 1290.5,1086.17 1290.5,1072.83 1290.5,1059.5 Z"/></g>
<g><path style="opacity:1" fill="#ab6e15" d="M 1470.5,1069.5 C 1466.73,1071.54 1462.73,1073.21 1458.5,1074.5C 1458.47,1073.5 1458.97,1072.84 1460,1072.5C 1463.4,1071.04 1466.9,1070.04 1470.5,1069.5 Z"/></g>
<g><path style="opacity:1" fill="#24211f" d="M 1432.5,1097.5 C 1428.18,1105.79 1424.85,1114.45 1422.5,1123.5C 1421.71,1124.61 1421.21,1125.94 1421,1127.5C 1420.18,1137.01 1420.34,1146.34 1421.5,1155.5C 1421.5,1156.83 1421.5,1158.17 1421.5,1159.5C 1420.96,1162.7 1421.63,1165.36 1423.5,1167.5C 1424.56,1173.07 1426.22,1178.4 1428.5,1183.5C 1427.54,1183.05 1426.71,1182.38 1426,1181.5C 1426.41,1183.23 1426.24,1184.89 1425.5,1186.5C 1424.72,1185.27 1424.22,1183.94 1424,1182.5C 1423.94,1184.88 1423.1,1185.55 1421.5,1184.5C 1420.1,1186.92 1420.6,1188.92 1423,1190.5C 1423.33,1189.5 1423.67,1188.5 1424,1187.5C 1424.96,1189.62 1426.12,1191.62 1427.5,1193.5C 1427.17,1193.83 1426.83,1194.17 1426.5,1194.5C 1425.67,1193.5 1424.83,1192.5 1424,1191.5C 1423.38,1195.93 1422.38,1196.26 1421,1192.5C 1419.99,1193.34 1418.82,1193.67 1417.5,1193.5C 1418.59,1190.01 1418.59,1186.68 1417.5,1183.5C 1419.47,1175.09 1419.8,1166.76 1418.5,1158.5C 1416.96,1146.42 1411.96,1136.09 1403.5,1127.5C 1402.42,1125.41 1400.75,1124.08 1398.5,1123.5C 1393.03,1119.77 1387.03,1117.1 1380.5,1115.5C 1381.1,1114.1 1382.1,1113.1 1383.5,1112.5C 1398.29,1105.29 1407.62,1093.62 1411.5,1077.5C 1412.74,1070.31 1412.74,1062.98 1411.5,1055.5C 1412.16,1054.28 1412.83,1052.95 1413.5,1051.5C 1414.09,1051.71 1414.59,1052.04 1415,1052.5C 1419.06,1066.48 1422.23,1080.65 1424.5,1095C 1422.93,1097.87 1423.59,1100.04 1426.5,1101.5C 1428.57,1101.18 1428.9,1100.34 1427.5,1099C 1429.02,1097.99 1430.69,1097.49 1432.5,1097.5 Z"/></g>
<g><path style="opacity:1" fill="#707070" d="M 1028.5,1087.5 C 1027.92,1089.75 1026.59,1091.42 1024.5,1092.5C 1025.08,1090.25 1026.41,1088.58 1028.5,1087.5 Z"/></g>
<g><path style="opacity:1" fill="#18222d" d="M 1335.5,1098.5 C 1321.5,1098.5 1307.5,1098.5 1293.5,1098.5C 1300.13,1097.17 1307.13,1096.5 1314.5,1096.5C 1321.87,1096.5 1328.87,1097.17 1335.5,1098.5 Z"/></g>
<g><path style="opacity:1" fill="#c88322" d="M 1290.5,1059.5 C 1290.5,1072.83 1290.5,1086.17 1290.5,1099.5C 1306.17,1099.67 1321.84,1099.5 1337.5,1099C 1339.35,1097.87 1341.35,1097.37 1343.5,1097.5C 1342.16,1098.79 1340.49,1099.63 1338.5,1100C 1322.17,1100.5 1305.84,1100.67 1289.5,1100.5C 1289.17,1086.66 1289.5,1072.99 1290.5,1059.5 Z"/></g>
<g><path style="opacity:1" fill="#e98e0d" d="M 1694.5,1087.5 C 1692.79,1089.91 1691.45,1092.57 1690.5,1095.5C 1691.25,1095.74 1692.08,1096.07 1693,1096.5C 1693.69,1098.57 1693.52,1100.57 1692.5,1102.5C 1694.18,1103.85 1694.68,1105.52 1694,1107.5C 1691.76,1105.12 1689.93,1102.46 1688.5,1099.5C 1687.69,1101.42 1687.19,1103.42 1687,1105.5C 1686.67,1104.83 1686.33,1104.17 1686,1103.5C 1684.99,1110.91 1682.49,1117.58 1678.5,1123.5C 1678.91,1119.78 1679.58,1116.11 1680.5,1112.5C 1682.29,1108.64 1683.79,1104.64 1685,1100.5C 1687,1097.17 1689,1093.83 1691,1090.5C 1692.04,1089.29 1693.21,1088.29 1694.5,1087.5 Z"/></g>
<g><path style="opacity:1" fill="#3b280f" d="M 1777.5,1108.5 C 1773.27,1108.08 1769.1,1107.42 1765,1106.5C 1759.54,1107.64 1754.04,1108.64 1748.5,1109.5C 1752.98,1106.12 1758.15,1104.79 1764,1105.5C 1769.01,1105.03 1773.51,1106.03 1777.5,1108.5 Z"/></g>
<g><path style="opacity:1" fill="#2d2419" d="M 1524.5,1110.5 C 1522.54,1109.87 1520.54,1109.2 1518.5,1108.5C 1515.06,1110.25 1511.39,1110.75 1507.5,1110C 1507.17,1109.67 1506.83,1109.33 1506.5,1109C 1508.61,1108.64 1510.61,1107.97 1512.5,1107C 1507.86,1105.81 1503.69,1106.64 1500,1109.5C 1497.49,1108.25 1494.99,1108.25 1492.5,1109.5C 1493.35,1108.03 1494.68,1107.2 1496.5,1107C 1504.39,1104.91 1512.22,1105.08 1520,1107.5C 1521.94,1107.96 1523.44,1108.96 1524.5,1110.5 Z"/></g>
<g><path style="opacity:1" fill="#743e0d" d="M 1383.5,1112.5 C 1382.1,1113.1 1381.1,1114.1 1380.5,1115.5C 1379.24,1115.54 1378.24,1115.04 1377.5,1114C 1379.35,1112.87 1381.35,1112.37 1383.5,1112.5 Z"/></g>
<g><path style="opacity:1" fill="#222120" d="M 1524.5,1110.5 C 1534.74,1115.63 1540.58,1123.96 1542,1135.5C 1544.36,1148.9 1541.86,1161.24 1534.5,1172.5C 1529.96,1177.94 1524.29,1181.6 1517.5,1183.5C 1511.17,1184.77 1504.84,1184.77 1498.5,1183.5C 1491.12,1181.14 1485.12,1176.8 1480.5,1170.5C 1478.53,1166.24 1476.87,1161.91 1475.5,1157.5C 1475.5,1150.17 1475.5,1142.83 1475.5,1135.5C 1476.41,1125.69 1480.75,1117.53 1488.5,1111C 1489.74,1110.21 1491.08,1109.71 1492.5,1109.5C 1494.99,1108.25 1497.49,1108.25 1500,1109.5C 1503.69,1106.64 1507.86,1105.81 1512.5,1107C 1510.61,1107.97 1508.61,1108.64 1506.5,1109C 1506.83,1109.33 1507.17,1109.67 1507.5,1110C 1511.39,1110.75 1515.06,1110.25 1518.5,1108.5C 1520.54,1109.2 1522.54,1109.87 1524.5,1110.5 Z"/></g>
<g><path style="opacity:1" fill="#362714" d="M 1680.5,1112.5 C 1679.58,1116.11 1678.91,1119.78 1678.5,1123.5C 1675.98,1138.03 1675.98,1152.7 1678.5,1167.5C 1675.97,1160.14 1674.63,1152.31 1674.5,1144C 1674.37,1137.65 1675.04,1131.48 1676.5,1125.5C 1676.47,1123.24 1676.13,1121.07 1675.5,1119C 1676.52,1116.93 1677.36,1114.76 1678,1112.5C 1678.77,1113.6 1679.6,1113.6 1680.5,1112.5 Z"/></g>
<g><path style="opacity:1" fill="#5d340c" d="M 1743.5,1113.5 C 1741.83,1115.83 1739.83,1117.83 1737.5,1119.5C 1738.5,1116.5 1740.5,1114.5 1743.5,1113.5 Z"/></g>
<g><path style="opacity:1" fill="#212120" d="M 1777.5,1108.5 C 1784.05,1111.05 1789.05,1115.39 1792.5,1121.5C 1793.51,1123.54 1794.51,1125.54 1795.5,1127.5C 1797.39,1138.13 1797.72,1148.8 1796.5,1159.5C 1794.78,1165.33 1792.12,1170.66 1788.5,1175.5C 1785.91,1176.42 1783.91,1178.09 1782.5,1180.5C 1780.29,1181.77 1777.95,1182.77 1775.5,1183.5C 1770.2,1184.19 1764.86,1184.53 1759.5,1184.5C 1746,1182.35 1737,1174.69 1732.5,1161.5C 1730.74,1148.99 1731.41,1136.66 1734.5,1124.5C 1734.75,1122.33 1735.75,1120.66 1737.5,1119.5C 1739.83,1117.83 1741.83,1115.83 1743.5,1113.5C 1744.54,1111.47 1746.21,1110.14 1748.5,1109.5C 1754.04,1108.64 1759.54,1107.64 1765,1106.5C 1769.1,1107.42 1773.27,1108.08 1777.5,1108.5 Z"/></g>
<g><path style="opacity:1" fill="#60380d" d="M 1398.5,1123.5 C 1400.75,1124.08 1402.42,1125.41 1403.5,1127.5C 1401.25,1126.92 1399.58,1125.59 1398.5,1123.5 Z"/></g>
<g><path style="opacity:1" fill="#6f4407" d="M 1792.5,1121.5 C 1794.98,1122.69 1795.98,1124.69 1795.5,1127.5C 1794.51,1125.54 1793.51,1123.54 1792.5,1121.5 Z"/></g>
<g><path style="opacity:1" fill="#9d661b" d="M 1422.5,1123.5 C 1421.62,1134.14 1421.29,1144.81 1421.5,1155.5C 1420.34,1146.34 1420.18,1137.01 1421,1127.5C 1421.21,1125.94 1421.71,1124.61 1422.5,1123.5 Z"/></g>
<g><path style="opacity:1" fill="#563812" d="M 1475.5,1135.5 C 1475.5,1142.83 1475.5,1150.17 1475.5,1157.5C 1473.98,1153.44 1473.32,1149.11 1473.5,1144.5C 1473.52,1141.09 1474.18,1138.09 1475.5,1135.5 Z"/></g>
<g><path style="opacity:1" fill="#d6871c" d="M 1678.5,1123.5 C 1678.23,1138.2 1678.57,1152.86 1679.5,1167.5C 1679.17,1167.5 1678.83,1167.5 1678.5,1167.5C 1675.98,1152.7 1675.98,1138.03 1678.5,1123.5 Z"/></g>
<g><path style="opacity:1" fill="#543410" d="M 1734.5,1124.5 C 1731.41,1136.66 1730.74,1148.99 1732.5,1161.5C 1729.27,1151.76 1728.77,1141.76 1731,1131.5C 1731.67,1128.83 1732.84,1126.49 1734.5,1124.5 Z"/></g>
<g><path style="opacity:1" fill="#412408" d="M 1795.5,1127.5 C 1796.22,1127.92 1796.72,1128.58 1797,1129.5C 1799.15,1139.69 1798.99,1149.69 1796.5,1159.5C 1797.72,1148.8 1797.39,1138.13 1795.5,1127.5 Z"/></g>
<g><path style="opacity:1" fill="#212121" d="M 1343.5,1140.5 C 1350.67,1141.91 1356.33,1145.58 1360.5,1151.5C 1360.5,1156.83 1360.5,1162.17 1360.5,1167.5C 1360.04,1169.76 1359.04,1171.76 1357.5,1173.5C 1352.35,1178.89 1346.02,1181.55 1338.5,1181.5C 1322.8,1181.79 1307.13,1181.45 1291.5,1180.5C 1291.5,1167.17 1291.5,1153.83 1291.5,1140.5C 1308.83,1140.5 1326.17,1140.5 1343.5,1140.5 Z"/></g>
<g><path style="opacity:1" fill="#a3681a" d="M 1335.5,1139.5 C 1320.5,1139.5 1305.5,1139.5 1290.5,1139.5C 1290.5,1153.5 1290.5,1167.5 1290.5,1181.5C 1289.5,1167.34 1289.17,1153.01 1289.5,1138.5C 1305.01,1138.17 1320.34,1138.5 1335.5,1139.5 Z"/></g>
<g><path style="opacity:1" fill="#392107" d="M 1335.5,1139.5 C 1338.39,1139.19 1341.05,1139.53 1343.5,1140.5C 1326.17,1140.5 1308.83,1140.5 1291.5,1140.5C 1291.5,1153.83 1291.5,1167.17 1291.5,1180.5C 1307.13,1181.45 1322.8,1181.79 1338.5,1181.5C 1322.5,1182.83 1306.5,1182.83 1290.5,1181.5C 1290.5,1167.5 1290.5,1153.5 1290.5,1139.5C 1305.5,1139.5 1320.5,1139.5 1335.5,1139.5 Z"/></g>
<g><path style="opacity:1" fill="#42270c" d="M 1360.5,1151.5 C 1363.17,1156.83 1363.17,1162.17 1360.5,1167.5C 1360.5,1162.17 1360.5,1156.83 1360.5,1151.5 Z"/></g>
<g><path style="opacity:1" fill="#482805" d="M 1418.5,1158.5 C 1419.8,1166.76 1419.47,1175.09 1417.5,1183.5C 1417.17,1183.5 1416.83,1183.5 1416.5,1183.5C 1418.05,1175.25 1418.72,1166.92 1418.5,1158.5 Z"/></g>
<g><path style="opacity:1" fill="#684010" d="M 1421.5,1159.5 C 1422.77,1161.91 1423.43,1164.57 1423.5,1167.5C 1421.63,1165.36 1420.96,1162.7 1421.5,1159.5 Z"/></g>
<g><path style="opacity:1" fill="#a66a14" d="M 1788.5,1175.5 C 1787.09,1177.91 1785.09,1179.58 1782.5,1180.5C 1783.91,1178.09 1785.91,1176.42 1788.5,1175.5 Z"/></g>
<g><path style="opacity:1" fill="#a96b1c" d="M 1498.5,1183.5 C 1504.84,1184.77 1511.17,1184.77 1517.5,1183.5C 1515.08,1184.81 1512.25,1185.48 1509,1185.5C 1506.17,1185.33 1503.33,1185.17 1500.5,1185C 1499.58,1184.72 1498.92,1184.22 1498.5,1183.5 Z"/></g>
<g><path style="opacity:1" fill="#9a6216" d="M 1775.5,1183.5 C 1775.08,1184.22 1774.42,1184.72 1773.5,1185C 1768.65,1185.82 1763.98,1185.65 1759.5,1184.5C 1764.86,1184.53 1770.2,1184.19 1775.5,1183.5 Z"/></g>
<g><path style="opacity:1" fill="#7e4e0e" d="M 1412.5,1192.5 C 1412.16,1195.2 1410.82,1197.2 1408.5,1198.5C 1409.34,1196.15 1410.67,1194.15 1412.5,1192.5 Z"/></g>
<g><path style="opacity:1" fill="#5d3a0d" d="M 1576.5,1199.5 C 1576.23,1201.98 1574.89,1203.65 1572.5,1204.5C 1573.08,1202.25 1574.41,1200.58 1576.5,1199.5 Z"/></g>
<g><path style="opacity:1" fill="#ca7f19" d="M 1452.5,1210.5 C 1454.92,1211.89 1457.59,1212.72 1460.5,1213C 1461.17,1214 1461.83,1215 1462.5,1216C 1466.37,1216.1 1469.37,1217.6 1471.5,1220.5C 1464.21,1218.85 1457.87,1215.51 1452.5,1210.5 Z"/></g>
<g><path style="opacity:1" fill="#ac6c13" d="M 1722.5,1221.5 C 1726.62,1221.84 1730.29,1223.18 1733.5,1225.5C 1730.11,1224.98 1726.78,1224.14 1723.5,1223C 1722.94,1222.62 1722.61,1222.12 1722.5,1221.5 Z"/></g>
<g><path style="opacity:1" fill="#ef961c" d="M 1362.5,1222.5 C 1358.31,1223.28 1353.97,1223.95 1349.5,1224.5C 1311.66,1224.83 1274,1224.5 1236.5,1223.5C 1278.51,1223.74 1320.51,1223.41 1362.5,1222.5 Z"/></g>
<g><path style="opacity:1" fill="#5c400b" d="M 1775.5,1223.5 C 1773.09,1224.77 1770.43,1225.43 1767.5,1225.5C 1769.84,1223.96 1772.5,1223.29 1775.5,1223.5 Z"/></g>
<g><path style="opacity:1" fill="#352108" d="M 1362.5,1222.5 C 1363.83,1222.5 1365.17,1222.5 1366.5,1222.5C 1361.67,1223.93 1356.67,1225.1 1351.5,1226C 1312.66,1226.83 1274,1226.66 1235.5,1225.5C 1273.67,1225.83 1311.67,1225.5 1349.5,1224.5C 1353.97,1223.95 1358.31,1223.28 1362.5,1222.5 Z"/></g>
<g><path style="opacity:1" fill="#553008" d="M 1535.5,1223.5 C 1531.47,1225.34 1527.13,1226.5 1522.5,1227C 1512.99,1227.82 1503.66,1227.66 1494.5,1226.5C 1508.31,1227.07 1521.98,1226.07 1535.5,1223.5 Z"/></g>
<g><path style="opacity:1" fill="#96570e" d="M 1734.5,1225.5 C 1742.82,1226.12 1751.15,1226.46 1759.5,1226.5C 1756.52,1227.16 1753.35,1227.5 1750,1227.5C 1744.59,1227.62 1739.42,1226.95 1734.5,1225.5 Z"/></g>
<g><path style="opacity:1" fill="#fdfdfd" d="M 1339.5,1267.5 C 1377.06,1270.85 1405.56,1288.51 1425,1320.5C 1427.86,1325.92 1430.03,1331.58 1431.5,1337.5C 1431.41,1340.15 1432.08,1342.49 1433.5,1344.5C 1442.5,1384.68 1432.5,1419.18 1403.5,1448C 1384.56,1463.37 1362.89,1472.21 1338.5,1474.5C 1304.5,1474.5 1270.5,1474.5 1236.5,1474.5C 1236.5,1405.5 1236.5,1336.5 1236.5,1267.5C 1270.83,1267.5 1305.17,1267.5 1339.5,1267.5 Z"/></g>
<g><path style="opacity:1" fill="#bebebe" d="M 1339.5,1267.5 C 1305.17,1267.5 1270.83,1267.5 1236.5,1267.5C 1236.5,1336.5 1236.5,1405.5 1236.5,1474.5C 1270.5,1474.5 1304.5,1474.5 1338.5,1474.5C 1304.34,1475.5 1270,1475.83 1235.5,1475.5C 1235.5,1405.83 1235.5,1336.17 1235.5,1266.5C 1270.34,1266.17 1305,1266.5 1339.5,1267.5 Z"/></g>
<g><path style="opacity:1" fill="#fdfdfd" d="M 1619.5,1277.5 C 1636.83,1277.5 1654.17,1277.5 1671.5,1277.5C 1671.17,1292.34 1671.5,1307.01 1672.5,1321.5C 1685.99,1322.5 1699.66,1322.83 1713.5,1322.5C 1713.5,1333.83 1713.5,1345.17 1713.5,1356.5C 1699.66,1356.17 1685.99,1356.5 1672.5,1357.5C 1672.33,1380.17 1672.5,1402.84 1673,1425.5C 1676.85,1434.06 1683.35,1436.9 1692.5,1434C 1697.26,1432.59 1701.93,1431.26 1706.5,1430C 1710.95,1442.2 1714.29,1454.7 1716.5,1467.5C 1695.99,1476.97 1674.65,1479.47 1652.5,1475C 1634.79,1468.46 1624.12,1455.96 1620.5,1437.5C 1619.54,1410.86 1619.2,1384.19 1619.5,1357.5C 1612.35,1356.51 1605.02,1356.18 1597.5,1356.5C 1597.5,1345.17 1597.5,1333.83 1597.5,1322.5C 1604.83,1322.5 1612.17,1322.5 1619.5,1322.5C 1619.5,1307.5 1619.5,1292.5 1619.5,1277.5 Z"/></g>
<g><path style="opacity:1" fill="#868686" d="M 1619.5,1277.5 C 1636.99,1276.5 1654.66,1276.17 1672.5,1276.5C 1672.5,1291.5 1672.5,1306.5 1672.5,1321.5C 1671.5,1307.01 1671.17,1292.34 1671.5,1277.5C 1654.17,1277.5 1636.83,1277.5 1619.5,1277.5 Z"/></g>
<g><path style="opacity:1" fill="#caccca" d="M 692.5,1283.5 C 692.5,1283.17 692.5,1282.83 692.5,1282.5C 754.792,1283.49 817.125,1283.83 879.5,1283.5C 878.791,1284.4 877.791,1284.74 876.5,1284.5C 815.095,1284.83 753.762,1284.5 692.5,1283.5 Z"/></g>
<g><path style="opacity:1" fill="#444745" d="M 692.5,1283.5 C 753.762,1284.5 815.095,1284.83 876.5,1284.5C 846.002,1285.17 815.335,1285.5 784.5,1285.5C 753.493,1285.5 722.826,1284.83 692.5,1283.5 Z"/></g>
<g><path style="opacity:1" fill="#845818" d="M 883.5,1284.5 C 946.336,1284.17 1009,1284.5 1071.5,1285.5C 1009.17,1285.33 946.832,1285.5 884.5,1286C 882.963,1287.71 881.296,1289.21 879.5,1290.5C 880.415,1288.25 881.748,1286.25 883.5,1284.5 Z"/></g>
<g><path style="opacity:1" fill="#22211e" d="M 1072.5,1541.5 C 1073.83,1542.83 1075.17,1542.83 1076.5,1541.5C 1078.03,1540.16 1079.37,1538.49 1080.5,1536.5C 1079.68,1535.61 1078.68,1535.28 1077.5,1535.5C 1077.83,1454.66 1077.5,1374 1076.5,1293.5C 1076.67,1292.51 1076.34,1291.84 1075.5,1291.5C 1075.5,1290.83 1075.17,1290.5 1074.5,1290.5C 1073.11,1289.1 1072.11,1287.43 1071.5,1285.5C 1009,1284.5 946.336,1284.17 883.5,1284.5C 945.999,1283.67 1008.67,1283.17 1071.5,1283C 1011.16,1282.83 950.831,1282.33 890.5,1281.5C 892.006,1280.25 893.506,1280.25 895,1281.5C 954.137,1280.83 1013.3,1280.16 1072.5,1279.5C 1072.42,1281.94 1072.92,1284.27 1074,1286.5C 1074.4,1282.29 1076.56,1279.95 1080.5,1279.5C 1081.77,1282.3 1082.6,1285.3 1083,1288.5C 1084.06,1285.56 1084.56,1282.56 1084.5,1279.5C 1085.52,1282.44 1086.36,1285.44 1087,1288.5C 1087.67,1375.5 1087.67,1462.5 1087,1549.5C 1086.67,1464.17 1086.33,1378.83 1086,1293.5C 1085.67,1293.17 1085.33,1292.83 1085,1292.5C 1084.5,1374.17 1084.33,1455.83 1084.5,1537.5C 1083.5,1537.5 1082.5,1537.5 1081.5,1537.5C 1081.66,1538.87 1081.49,1540.21 1081,1541.5C 1079.49,1542.5 1078.33,1543.84 1077.5,1545.5C 1076.26,1544.75 1074.93,1544.42 1073.5,1544.5C 1073.5,1545.83 1073.5,1547.17 1073.5,1548.5C 1071.52,1548.38 1069.85,1549.05 1068.5,1550.5C 1067.17,1548.5 1067.17,1546.5 1068.5,1544.5C 1071.08,1545.62 1072.41,1544.62 1072.5,1541.5 Z"/></g>
<g><path style="opacity:1" fill="#fe9500" d="M 1071.5,1285.5 C 1072.11,1287.43 1073.11,1289.1 1074.5,1290.5C 1074.83,1373.67 1074.5,1456.67 1073.5,1539.5C 1073.17,1539.5 1072.83,1539.5 1072.5,1539.5C 1072.17,1538.83 1071.83,1538.17 1071.5,1537.5C 1072.66,1462.21 1072.83,1386.87 1072,1311.5C 1071.67,1384.5 1071.33,1457.5 1071,1530.5C 1069.67,1529.17 1068.33,1527.83 1067,1526.5C 1066.77,1527.74 1066.27,1528.74 1065.5,1529.5C 1064.06,1527.64 1062.39,1525.97 1060.5,1524.5C 1059.12,1522.45 1057.45,1520.78 1055.5,1519.5C 1054.4,1514.73 1051.74,1511.06 1047.5,1508.5C 1047.41,1506.15 1046.41,1504.49 1044.5,1503.5C 1041.54,1499.21 1038.21,1495.21 1034.5,1491.5C 1031.8,1487.81 1029.13,1484.14 1026.5,1480.5C 1024.59,1477.18 1022.25,1474.18 1019.5,1471.5C 1014.18,1464.19 1008.52,1457.19 1002.5,1450.5C 999.55,1445.22 995.884,1440.56 991.5,1436.5C 990.306,1432.64 987.973,1429.64 984.5,1427.5C 982.555,1423.26 979.888,1419.6 976.5,1416.5C 975.399,1415.4 974.066,1415.24 972.5,1416C 970.915,1418.07 969.581,1420.24 968.5,1422.5C 963.787,1427.57 959.787,1433.23 956.5,1439.5C 953.027,1441.64 950.694,1444.64 949.5,1448.5C 947.1,1450.3 945.433,1452.63 944.5,1455.5C 942.738,1456.26 941.738,1457.6 941.5,1459.5C 938.791,1462.21 936.458,1465.21 934.5,1468.5C 931.992,1471.32 929.659,1474.32 927.5,1477.5C 924.395,1480.27 922.062,1483.61 920.5,1487.5C 918.453,1489.55 916.786,1491.88 915.5,1494.5C 913.413,1495.58 912.08,1497.25 911.5,1499.5C 909.987,1502.52 907.987,1505.19 905.5,1507.5C 901.786,1511.88 898.453,1516.55 895.5,1521.5C 894.094,1521.97 893.427,1522.97 893.5,1524.5C 891.413,1525.58 890.08,1527.25 889.5,1529.5C 886.454,1532.88 883.787,1536.55 881.5,1540.5C 880.711,1540.78 880.044,1541.28 879.5,1542C 816.501,1542.5 753.501,1542.67 690.5,1542.5C 692.193,1539.82 693.86,1537.15 695.5,1534.5C 698.409,1531.02 701.075,1527.35 703.5,1523.5C 704.512,1522.13 705.512,1520.8 706.5,1519.5C 708.914,1518.09 710.581,1516.09 711.5,1513.5C 711.427,1511.97 712.094,1510.97 713.5,1510.5C 715.587,1509.42 716.92,1507.75 717.5,1505.5C 717.782,1504.22 718.449,1503.22 719.5,1502.5C 724.358,1498.32 728.024,1493.32 730.5,1487.5C 732.89,1486.11 734.557,1484.11 735.5,1481.5C 738.605,1478.73 740.938,1475.39 742.5,1471.5C 746.824,1467.68 750.991,1463.68 755,1459.5C 755.49,1458.21 755.657,1456.87 755.5,1455.5C 757.9,1453.7 759.567,1451.37 760.5,1448.5C 762.662,1445.09 764.995,1441.76 767.5,1438.5C 771.784,1435.25 775.118,1431.25 777.5,1426.5C 777.427,1424.97 778.094,1423.97 779.5,1423.5C 780.87,1421.83 782.203,1420.16 783.5,1418.5C 784.167,1417.5 784.833,1416.5 785.5,1415.5C 787.975,1413.23 789.975,1410.56 791.5,1407.5C 794.908,1404.42 797.575,1400.75 799.5,1396.5C 800.864,1394.81 802.197,1393.14 803.5,1391.5C 805.587,1390.42 806.92,1388.75 807.5,1386.5C 809.984,1384.2 811.984,1381.53 813.5,1378.5C 814.906,1378.03 815.573,1377.03 815.5,1375.5C 818.973,1373.36 821.306,1370.36 822.5,1366.5C 825.5,1361.84 828.834,1357.51 832.5,1353.5C 835.815,1350.87 838.149,1347.54 839.5,1343.5C 840.593,1341.65 841.926,1339.98 843.5,1338.5C 845.587,1337.42 846.92,1335.75 847.5,1333.5C 848.473,1330.87 850.14,1328.87 852.5,1327.5C 855.984,1323.87 858.984,1319.87 861.5,1315.5C 863.435,1311.29 866.102,1307.63 869.5,1304.5C 871.587,1303.42 872.92,1301.75 873.5,1299.5C 877.38,1298.28 879.38,1295.61 879.5,1291.5C 879.5,1291.17 879.5,1290.83 879.5,1290.5C 881.296,1289.21 882.963,1287.71 884.5,1286C 946.832,1285.5 1009.17,1285.33 1071.5,1285.5 Z"/></g>
<g><path style="opacity:1" fill="#ab6910" d="M 879.5,1291.5 C 879.38,1295.61 877.38,1298.28 873.5,1299.5C 875.016,1296.47 877.016,1293.8 879.5,1291.5 Z"/></g>
<g><path style="opacity:1" fill="#834e0c" d="M 873.5,1299.5 C 872.92,1301.75 871.587,1303.42 869.5,1304.5C 870.08,1302.25 871.413,1300.58 873.5,1299.5 Z"/></g>
<g><path style="opacity:1" fill="#f3980a" d="M 1071.5,1537.5 C 1069.15,1535.14 1067.15,1532.47 1065.5,1529.5C 1066.27,1528.74 1066.77,1527.74 1067,1526.5C 1068.33,1527.83 1069.67,1529.17 1071,1530.5C 1071.33,1457.5 1071.67,1384.5 1072,1311.5C 1072.83,1386.87 1072.66,1462.21 1071.5,1537.5 Z"/></g>
<g><path style="opacity:1" fill="#dd8c1e" d="M 1074.5,1290.5 C 1075.17,1290.5 1075.5,1290.83 1075.5,1291.5C 1075.83,1374.5 1075.5,1457.5 1074.5,1540.5C 1073.89,1540.38 1073.56,1540.04 1073.5,1539.5C 1074.5,1456.67 1074.83,1373.67 1074.5,1290.5 Z"/></g>
<g><path style="opacity:1" fill="#5e3810" d="M 1075.5,1291.5 C 1076.34,1291.84 1076.67,1292.51 1076.5,1293.5C 1076.5,1376.17 1076.5,1458.83 1076.5,1541.5C 1075.17,1542.83 1073.83,1542.83 1072.5,1541.5C 1072.5,1540.83 1072.5,1540.17 1072.5,1539.5C 1072.83,1539.5 1073.17,1539.5 1073.5,1539.5C 1073.56,1540.04 1073.89,1540.38 1074.5,1540.5C 1075.5,1457.5 1075.83,1374.5 1075.5,1291.5 Z"/></g>
<g><path style="opacity:1" fill="#271f22" d="M 1076.5,1293.5 C 1077.5,1374 1077.83,1454.66 1077.5,1535.5C 1078.68,1535.28 1079.68,1535.61 1080.5,1536.5C 1079.37,1538.49 1078.03,1540.16 1076.5,1541.5C 1076.5,1458.83 1076.5,1376.17 1076.5,1293.5 Z"/></g>
<g><path style="opacity:1" fill="#212121" d="M 1290.5,1311.5 C 1305.5,1311.33 1320.5,1311.5 1335.5,1312C 1364.51,1320.19 1379.51,1339.35 1380.5,1369.5C 1380.82,1390.06 1373.49,1407.23 1358.5,1421C 1351.19,1425.77 1343.19,1428.77 1334.5,1430C 1319.84,1430.5 1305.17,1430.67 1290.5,1430.5C 1290.5,1390.83 1290.5,1351.17 1290.5,1311.5 Z"/></g>
<g><path style="opacity:1" fill="#fdfdfd" d="M 1590.5,1360.5 C 1590.5,1398.5 1590.5,1436.5 1590.5,1474.5C 1573.5,1474.5 1556.5,1474.5 1539.5,1474.5C 1539.83,1468.79 1539.5,1463.13 1538.5,1457.5C 1537.89,1457.62 1537.56,1457.96 1537.5,1458.5C 1531.25,1465.64 1523.58,1470.8 1514.5,1474C 1499.59,1478.23 1484.59,1478.56 1469.5,1475C 1443.87,1464.93 1432.7,1446.09 1436,1418.5C 1439.25,1401.25 1449.08,1389.41 1465.5,1383C 1471.35,1381.02 1477.35,1379.69 1483.5,1379C 1501.83,1378.5 1520.16,1378.33 1538.5,1378.5C 1540.05,1373.88 1539.38,1369.55 1536.5,1365.5C 1531.53,1358.18 1524.53,1354.18 1515.5,1353.5C 1512.85,1352.84 1510.02,1352.5 1507,1352.5C 1501.92,1352.41 1497.09,1353.07 1492.5,1354.5C 1481.54,1356.32 1471.04,1359.65 1461,1364.5C 1459.18,1362.87 1457.85,1360.87 1457,1358.5C 1453.66,1348.98 1449.82,1339.64 1445.5,1330.5C 1460.46,1322.35 1476.46,1316.85 1493.5,1314C 1507.79,1312.44 1522.13,1312.11 1536.5,1313C 1556.58,1315.12 1572.42,1324.28 1584,1340.5C 1587.48,1346.76 1589.64,1353.43 1590.5,1360.5 Z"/></g>
<g><path style="opacity:1" fill="#fdfdfd" d="M 1869.5,1361.5 C 1869.5,1399.17 1869.5,1436.83 1869.5,1474.5C 1852.5,1474.5 1835.5,1474.5 1818.5,1474.5C 1818.83,1468.79 1818.5,1463.13 1817.5,1457.5C 1816.89,1457.62 1816.56,1457.96 1816.5,1458.5C 1806.43,1469.7 1793.76,1475.87 1778.5,1477C 1761.37,1479.18 1745.71,1475.51 1731.5,1466C 1712.21,1445.62 1709.37,1423.12 1723,1398.5C 1736.45,1384.53 1752.95,1377.87 1772.5,1378.5C 1787.83,1378.5 1803.17,1378.5 1818.5,1378.5C 1818.81,1375.61 1818.47,1372.95 1817.5,1370.5C 1816.32,1365.97 1813.99,1362.14 1810.5,1359C 1800.25,1353.02 1789.25,1351.02 1777.5,1353C 1764.54,1355.33 1752.04,1359.16 1740,1364.5C 1739.5,1364.17 1739,1363.83 1738.5,1363.5C 1733.87,1352.08 1729.37,1340.75 1725,1329.5C 1760.71,1311.3 1797.87,1307.46 1836.5,1318C 1853.41,1325.24 1864.25,1337.74 1869,1355.5C 1869.5,1357.47 1869.66,1359.47 1869.5,1361.5 Z"/></g>
<g><path style="opacity:1" fill="#815011" d="M 861.5,1315.5 C 858.984,1319.87 855.984,1323.87 852.5,1327.5C 852.351,1326.45 852.517,1325.45 853,1324.5C 855.387,1321.04 858.22,1318.04 861.5,1315.5 Z"/></g>
<g><path style="opacity:1" fill="#7f7f7f" d="M 1672.5,1321.5 C 1686.5,1321.5 1700.5,1321.5 1714.5,1321.5C 1714.5,1333.5 1714.5,1345.5 1714.5,1357.5C 1700.5,1357.5 1686.5,1357.5 1672.5,1357.5C 1685.99,1356.5 1699.66,1356.17 1713.5,1356.5C 1713.5,1345.17 1713.5,1333.83 1713.5,1322.5C 1699.66,1322.83 1685.99,1322.5 1672.5,1321.5 Z"/></g>
<g><path style="opacity:1" fill="#858585" d="M 1619.5,1277.5 C 1619.5,1292.5 1619.5,1307.5 1619.5,1322.5C 1612.17,1322.5 1604.83,1322.5 1597.5,1322.5C 1597.5,1333.83 1597.5,1345.17 1597.5,1356.5C 1605.02,1356.18 1612.35,1356.51 1619.5,1357.5C 1619.17,1357.5 1618.83,1357.5 1618.5,1357.5C 1611.17,1357.5 1603.83,1357.5 1596.5,1357.5C 1596.5,1345.5 1596.5,1333.5 1596.5,1321.5C 1603.83,1321.5 1611.17,1321.5 1618.5,1321.5C 1618.17,1306.66 1618.5,1291.99 1619.5,1277.5 Z"/></g>
<g><path style="opacity:1" fill="#784d13" d="M 847.5,1333.5 C 846.92,1335.75 845.587,1337.42 843.5,1338.5C 844.08,1336.25 845.413,1334.58 847.5,1333.5 Z"/></g>
<g><path style="opacity:1" fill="#a2a2a2" d="M 1431.5,1337.5 C 1432.92,1339.51 1433.59,1341.85 1433.5,1344.5C 1432.08,1342.49 1431.41,1340.15 1431.5,1337.5 Z"/></g>
<g><path style="opacity:1" fill="#784e0a" d="M 839.5,1343.5 C 838.149,1347.54 835.815,1350.87 832.5,1353.5C 834.344,1349.81 836.677,1346.48 839.5,1343.5 Z"/></g>
<g><path style="opacity:1" fill="#656565" d="M 1515.5,1353.5 C 1507.82,1353.52 1500.15,1353.86 1492.5,1354.5C 1497.09,1353.07 1501.92,1352.41 1507,1352.5C 1510.02,1352.5 1512.85,1352.84 1515.5,1353.5 Z"/></g>
<g><path style="opacity:1" fill="#5e5e5e" d="M 1618.5,1357.5 C 1618.83,1357.5 1619.17,1357.5 1619.5,1357.5C 1619.2,1384.19 1619.54,1410.86 1620.5,1437.5C 1619.73,1436.74 1619.23,1435.74 1619,1434.5C 1618.5,1408.84 1618.33,1383.17 1618.5,1357.5 Z"/></g>
<g><path style="opacity:1" fill="#83570c" d="M 822.5,1366.5 C 821.306,1370.36 818.973,1373.36 815.5,1375.5C 817.458,1372.21 819.791,1369.21 822.5,1366.5 Z"/></g>
<g><path style="opacity:1" fill="#909090" d="M 1536.5,1365.5 C 1539.38,1369.55 1540.05,1373.88 1538.5,1378.5C 1538.25,1374.09 1537.59,1369.76 1536.5,1365.5 Z"/></g>
<g><path style="opacity:1" fill="#545454" d="M 1817.5,1370.5 C 1818.47,1372.95 1818.81,1375.61 1818.5,1378.5C 1803.17,1378.5 1787.83,1378.5 1772.5,1378.5C 1787.32,1377.5 1802.32,1377.17 1817.5,1377.5C 1817.5,1375.17 1817.5,1372.83 1817.5,1370.5 Z"/></g>
<g><path style="opacity:1" fill="#855214" d="M 813.5,1378.5 C 811.984,1381.53 809.984,1384.2 807.5,1386.5C 808.529,1383.11 810.529,1380.44 813.5,1378.5 Z"/></g>
<g><path style="opacity:1" fill="#89520f" d="M 807.5,1386.5 C 806.92,1388.75 805.587,1390.42 803.5,1391.5C 804.08,1389.25 805.413,1387.58 807.5,1386.5 Z"/></g>
<g><path style="opacity:1" fill="#72470e" d="M 799.5,1396.5 C 797.575,1400.75 794.908,1404.42 791.5,1407.5C 793.457,1403.23 796.124,1399.56 799.5,1396.5 Z"/></g>
<g><path style="opacity:1" fill="#232323" d="M 1518.5,1439.5 C 1512.2,1440.32 1505.87,1440.65 1499.5,1440.5C 1488.22,1436.59 1483.72,1428.59 1486,1416.5C 1489.33,1410.42 1494.5,1407.25 1501.5,1407C 1513.83,1406.5 1526.16,1406.33 1538.5,1406.5C 1541.01,1417.64 1538.01,1426.81 1529.5,1434C 1526.05,1436.39 1522.38,1438.23 1518.5,1439.5 Z"/></g>
<g><path style="opacity:1" fill="#232323" d="M 1797.5,1439.5 C 1791.54,1440.31 1785.54,1440.64 1779.5,1440.5C 1767.41,1437.19 1762.57,1429.19 1765,1416.5C 1768.41,1410.57 1773.58,1407.41 1780.5,1407C 1792.83,1406.5 1805.16,1406.33 1817.5,1406.5C 1820.65,1423.64 1813.98,1434.64 1797.5,1439.5 Z"/></g>
<g><path style="opacity:1" fill="#7a4f10" d="M 791.5,1407.5 C 789.975,1410.56 787.975,1413.23 785.5,1415.5C 786.551,1412.04 788.551,1409.37 791.5,1407.5 Z"/></g>
<g><path style="opacity:1" fill="#76440b" d="M 976.5,1416.5 C 975.448,1416.35 974.448,1416.52 973.5,1417C 972.336,1419.33 970.67,1421.16 968.5,1422.5C 969.581,1420.24 970.915,1418.07 972.5,1416C 974.066,1415.24 975.399,1415.4 976.5,1416.5 Z"/></g>
<g><path style="opacity:1" fill="#6e4412" d="M 783.5,1418.5 C 782.203,1420.16 780.87,1421.83 779.5,1423.5C 779.343,1420.66 780.676,1418.99 783.5,1418.5 Z"/></g>
<g><path style="opacity:1" fill="#7a4c0e" d="M 777.5,1426.5 C 775.118,1431.25 771.784,1435.25 767.5,1438.5C 770.359,1434.12 773.692,1430.12 777.5,1426.5 Z"/></g>
<g><path style="opacity:1" fill="#463017" d="M 984.5,1427.5 C 987.973,1429.64 990.306,1432.64 991.5,1436.5C 990.504,1436.41 989.671,1436.75 989,1437.5C 988.667,1435.83 988.333,1434.17 988,1432.5C 986.198,1431.21 985.031,1429.54 984.5,1427.5 Z"/></g>
<g><path style="opacity:1" fill="#673f14" d="M 956.5,1439.5 C 954.542,1442.79 952.209,1445.79 949.5,1448.5C 950.694,1444.64 953.027,1441.64 956.5,1439.5 Z"/></g>
<g><path style="opacity:1" fill="#a9a9a9" d="M 1518.5,1439.5 C 1518.08,1440.22 1517.42,1440.72 1516.5,1441C 1510.65,1441.82 1504.98,1441.65 1499.5,1440.5C 1505.87,1440.65 1512.2,1440.32 1518.5,1439.5 Z"/></g>
<g><path style="opacity:1" fill="#a9a9a9" d="M 1797.5,1439.5 C 1797.08,1440.22 1796.42,1440.72 1795.5,1441C 1789.98,1441.82 1784.65,1441.65 1779.5,1440.5C 1785.54,1440.64 1791.54,1440.31 1797.5,1439.5 Z"/></g>
<g><path style="opacity:1" fill="#3b2a18" d="M 991.5,1436.5 C 995.884,1440.56 999.55,1445.22 1002.5,1450.5C 1001.19,1449.52 999.852,1448.52 998.5,1447.5C 997.116,1450.13 995.782,1450.13 994.5,1447.5C 995.5,1446.83 996.5,1446.17 997.5,1445.5C 995.035,1443.47 992.368,1441.63 989.5,1440C 990.973,1439.29 991.64,1438.12 991.5,1436.5 Z"/></g>
<g><path style="opacity:1" fill="#77450f" d="M 949.5,1448.5 C 948.567,1451.37 946.9,1453.7 944.5,1455.5C 945.433,1452.63 947.1,1450.3 949.5,1448.5 Z"/></g>
<g><path style="opacity:1" fill="#995f10" d="M 760.5,1448.5 C 759.567,1451.37 757.9,1453.7 755.5,1455.5C 756.433,1452.63 758.1,1450.3 760.5,1448.5 Z"/></g>
<g><path style="opacity:1" fill="#b47216" d="M 755.5,1455.5 C 755.657,1456.87 755.49,1458.21 755,1459.5C 750.991,1463.68 746.824,1467.68 742.5,1471.5C 746.376,1465.72 750.709,1460.39 755.5,1455.5 Z"/></g>
<g><path style="opacity:1" fill="#663e11" d="M 941.5,1459.5 C 940.306,1463.36 937.973,1466.36 934.5,1468.5C 936.458,1465.21 938.791,1462.21 941.5,1459.5 Z"/></g>
<g><path style="opacity:1" fill="#412e18" d="M 1002.5,1450.5 C 1008.52,1457.19 1014.18,1464.19 1019.5,1471.5C 1017.69,1470.37 1015.69,1469.7 1013.5,1469.5C 1013.5,1464.97 1011.5,1461.47 1007.5,1459C 1006.18,1459.15 1005.01,1458.98 1004,1458.5C 1003.39,1456.69 1003.72,1456.35 1005,1457.5C 1005.17,1457 1005.33,1456.5 1005.5,1456C 1004.26,1454.27 1003.26,1452.44 1002.5,1450.5 Z"/></g>
<g><path style="opacity:1" fill="#8f8f8f" d="M 1590.5,1360.5 C 1591.5,1398.66 1591.83,1437 1591.5,1475.5C 1573.83,1475.5 1556.17,1475.5 1538.5,1475.5C 1538.82,1469.64 1538.49,1463.98 1537.5,1458.5C 1537.56,1457.96 1537.89,1457.62 1538.5,1457.5C 1539.5,1463.13 1539.83,1468.79 1539.5,1474.5C 1556.5,1474.5 1573.5,1474.5 1590.5,1474.5C 1590.5,1436.5 1590.5,1398.5 1590.5,1360.5 Z"/></g>
<g><path style="opacity:1" fill="#919191" d="M 1869.5,1361.5 C 1870.5,1399.33 1870.83,1437.33 1870.5,1475.5C 1852.83,1475.5 1835.17,1475.5 1817.5,1475.5C 1817.82,1469.64 1817.49,1463.98 1816.5,1458.5C 1816.56,1457.96 1816.89,1457.62 1817.5,1457.5C 1818.5,1463.13 1818.83,1468.79 1818.5,1474.5C 1835.5,1474.5 1852.5,1474.5 1869.5,1474.5C 1869.5,1436.83 1869.5,1399.17 1869.5,1361.5 Z"/></g>
<g><path style="opacity:1" fill="#774d0d" d="M 742.5,1471.5 C 740.938,1475.39 738.605,1478.73 735.5,1481.5C 737.062,1477.61 739.395,1474.27 742.5,1471.5 Z"/></g>
<g><path style="opacity:1" fill="#80510d" d="M 927.5,1477.5 C 927.649,1478.55 927.483,1479.55 927,1480.5C 924.817,1482.91 922.65,1485.24 920.5,1487.5C 922.062,1483.61 924.395,1480.27 927.5,1477.5 Z"/></g>
<g><path style="opacity:1" fill="#754c0c" d="M 735.5,1481.5 C 734.557,1484.11 732.89,1486.11 730.5,1487.5C 731.473,1484.87 733.14,1482.87 735.5,1481.5 Z"/></g>
<g><path style="opacity:1" fill="#382c19" d="M 1026.5,1480.5 C 1029.13,1484.14 1031.8,1487.81 1034.5,1491.5C 1031.43,1490.03 1028.43,1488.36 1025.5,1486.5C 1026.35,1484.59 1026.68,1482.59 1026.5,1480.5 Z"/></g>
<g><path style="opacity:1" fill="#6d4310" d="M 920.5,1487.5 C 920.031,1490.64 918.364,1492.98 915.5,1494.5C 916.786,1491.88 918.453,1489.55 920.5,1487.5 Z"/></g>
<g><path style="opacity:1" fill="#8e5812" d="M 730.5,1487.5 C 728.024,1493.32 724.358,1498.32 719.5,1502.5C 722.788,1497.21 726.454,1492.21 730.5,1487.5 Z"/></g>
<g><path style="opacity:1" fill="#7c5313" d="M 915.5,1494.5 C 914.92,1496.75 913.587,1498.42 911.5,1499.5C 912.08,1497.25 913.413,1495.58 915.5,1494.5 Z"/></g>
<g><path style="opacity:1" fill="#754a0f" d="M 1044.5,1503.5 C 1046.41,1504.49 1047.41,1506.15 1047.5,1508.5C 1045.75,1507.34 1044.75,1505.67 1044.5,1503.5 Z"/></g>
<g><path style="opacity:1" fill="#8a5311" d="M 717.5,1505.5 C 716.92,1507.75 715.587,1509.42 713.5,1510.5C 714.08,1508.25 715.413,1506.58 717.5,1505.5 Z"/></g>
<g><path style="opacity:1" fill="#f4f4f4" d="M 1238.5,1507.5 C 1247.17,1507.33 1255.84,1507.5 1264.5,1508C 1272.1,1510.04 1274.94,1514.87 1273,1522.5C 1272.09,1525.58 1270.26,1527.91 1267.5,1529.5C 1275.91,1534.23 1277.74,1540.89 1273,1549.5C 1271.17,1550.67 1269.33,1551.83 1267.5,1553C 1257.91,1554.42 1248.25,1554.92 1238.5,1554.5C 1238.5,1538.83 1238.5,1523.17 1238.5,1507.5 Z"/></g>
<g><path style="opacity:1" fill="#fdfdfd" d="M 1285.5,1507.5 C 1296.17,1507.5 1306.83,1507.5 1317.5,1507.5C 1317.5,1509.17 1317.5,1510.83 1317.5,1512.5C 1308.83,1512.5 1300.17,1512.5 1291.5,1512.5C 1291.5,1517.5 1291.5,1522.5 1291.5,1527.5C 1298.98,1528.49 1306.65,1528.83 1314.5,1528.5C 1314.5,1529.83 1314.5,1531.17 1314.5,1532.5C 1306.65,1532.17 1298.98,1532.51 1291.5,1533.5C 1291.5,1538.5 1291.5,1543.5 1291.5,1548.5C 1299.98,1549.49 1308.65,1549.83 1317.5,1549.5C 1317.5,1550.83 1317.5,1552.17 1317.5,1553.5C 1306.83,1553.5 1296.17,1553.5 1285.5,1553.5C 1285.5,1538.17 1285.5,1522.83 1285.5,1507.5 Z"/></g>
<g><path style="opacity:1" fill="#eeeeee" d="M 1337.5,1507.5 C 1345.14,1506.54 1352.14,1508.04 1358.5,1512C 1357.78,1513.99 1356.78,1515.82 1355.5,1517.5C 1351.41,1515.39 1347.08,1514.06 1342.5,1513.5C 1335.78,1513.09 1333.28,1516.09 1335,1522.5C 1335.83,1523.33 1336.67,1524.17 1337.5,1525C 1342.36,1526.09 1347.02,1527.76 1351.5,1530C 1359.14,1533 1361.64,1538.5 1359,1546.5C 1356.69,1550.58 1353.19,1553.08 1348.5,1554C 1340.59,1555.58 1333.26,1554.25 1326.5,1550C 1323.92,1547.21 1324.25,1544.71 1327.5,1542.5C 1333.22,1547.68 1339.89,1549.52 1347.5,1548C 1352.76,1545.43 1353.76,1541.77 1350.5,1537C 1344.96,1534.63 1339.3,1532.63 1333.5,1531C 1327.06,1526.68 1325.23,1520.84 1328,1513.5C 1330.86,1510.77 1334.02,1508.77 1337.5,1507.5 Z"/></g>
<g><path style="opacity:1" fill="#fbfbfb" d="M 1364.5,1507.5 C 1376.5,1507.5 1388.5,1507.5 1400.5,1507.5C 1400.5,1509.5 1400.5,1511.5 1400.5,1513.5C 1395.5,1513.5 1390.5,1513.5 1385.5,1513.5C 1384.5,1526.66 1384.17,1539.99 1384.5,1553.5C 1382.83,1553.5 1381.17,1553.5 1379.5,1553.5C 1379.5,1539.83 1379.5,1526.17 1379.5,1512.5C 1374.5,1512.5 1369.5,1512.5 1364.5,1512.5C 1364.5,1510.83 1364.5,1509.17 1364.5,1507.5 Z"/></g>
<g><path style="opacity:1" fill="#f5f5f5" d="M 1424.5,1507.5 C 1432.84,1507.33 1441.17,1507.5 1449.5,1508C 1466.83,1514.66 1471.67,1526.49 1464,1543.5C 1460.31,1548.51 1455.48,1552.01 1449.5,1554C 1441.17,1554.5 1432.84,1554.67 1424.5,1554.5C 1424.5,1538.83 1424.5,1523.17 1424.5,1507.5 Z"/></g>
<g><path style="opacity:1" fill="#f1f1f1" d="M 1489.5,1507.5 C 1492.25,1507.19 1494.91,1507.52 1497.5,1508.5C 1504.4,1523.62 1510.73,1538.96 1516.5,1554.5C 1514.17,1554.5 1511.83,1554.5 1509.5,1554.5C 1509.03,1550.56 1507.7,1546.89 1505.5,1543.5C 1497.19,1542.5 1488.86,1542.17 1480.5,1542.5C 1478.98,1546.39 1477.65,1550.39 1476.5,1554.5C 1474.17,1554.5 1471.83,1554.5 1469.5,1554.5C 1475.78,1538.68 1482.44,1523.01 1489.5,1507.5 Z"/></g>
<g><path style="opacity:1" fill="#f0f0f0" d="M 1512.5,1507.5 C 1524.83,1507.5 1537.17,1507.5 1549.5,1507.5C 1549.5,1509.5 1549.5,1511.5 1549.5,1513.5C 1544.5,1513.5 1539.5,1513.5 1534.5,1513.5C 1534.5,1527.17 1534.5,1540.83 1534.5,1554.5C 1532.17,1554.5 1529.83,1554.5 1527.5,1554.5C 1527.5,1540.83 1527.5,1527.17 1527.5,1513.5C 1522.5,1513.5 1517.5,1513.5 1512.5,1513.5C 1512.5,1511.5 1512.5,1509.5 1512.5,1507.5 Z"/></g>
<g><path style="opacity:1" fill="#f1f1f1" d="M 1565.5,1507.5 C 1568.5,1507.5 1571.5,1507.5 1574.5,1507.5C 1581.11,1523.05 1587.44,1538.72 1593.5,1554.5C 1591.17,1554.5 1588.83,1554.5 1586.5,1554.5C 1585.57,1550.72 1584.24,1547.05 1582.5,1543.5C 1574.19,1542.33 1565.85,1542.17 1557.5,1543C 1555.47,1546.59 1554.14,1550.42 1553.5,1554.5C 1551.17,1554.5 1548.83,1554.5 1546.5,1554.5C 1552.6,1538.65 1558.93,1522.98 1565.5,1507.5 Z"/></g>
<g><path style="opacity:1" fill="#ececec" d="M 1643.5,1538.5 C 1637.19,1539.19 1630.86,1539.52 1624.5,1539.5C 1624.5,1544.5 1624.5,1549.5 1624.5,1554.5C 1622.17,1554.5 1619.83,1554.5 1617.5,1554.5C 1617.5,1538.83 1617.5,1523.17 1617.5,1507.5C 1625.84,1507.33 1634.17,1507.5 1642.5,1508C 1652.67,1511.16 1656.5,1517.99 1654,1528.5C 1651.95,1533.39 1648.45,1536.72 1643.5,1538.5 Z"/></g>
<g><path style="opacity:1" fill="#fcfcfc" d="M 1668.5,1507.5 C 1668.5,1521.5 1668.5,1535.5 1668.5,1549.5C 1675.17,1549.5 1681.83,1549.5 1688.5,1549.5C 1688.5,1550.83 1688.5,1552.17 1688.5,1553.5C 1679.83,1553.5 1671.17,1553.5 1662.5,1553.5C 1662.5,1538.17 1662.5,1522.83 1662.5,1507.5C 1664.5,1507.5 1666.5,1507.5 1668.5,1507.5 Z"/></g>
<g><path style="opacity:1" fill="#f1f1f1" d="M 1696.5,1507.5 C 1698.5,1507.5 1700.5,1507.5 1702.5,1507.5C 1702.33,1518.17 1702.5,1528.84 1703,1539.5C 1707.35,1549.71 1714.51,1552.21 1724.5,1547C 1726.58,1545.5 1727.92,1543.5 1728.5,1541C 1729.47,1529.87 1729.8,1518.71 1729.5,1507.5C 1731.83,1507.5 1734.17,1507.5 1736.5,1507.5C 1736.67,1518.51 1736.5,1529.51 1736,1540.5C 1729.45,1554.72 1718.95,1558.55 1704.5,1552C 1701.6,1549.76 1699.43,1546.93 1698,1543.5C 1696.56,1531.58 1696.06,1519.58 1696.5,1507.5 Z"/></g>
<g><path style="opacity:1" fill="#2b261c" d="M 1034.5,1491.5 C 1038.21,1495.21 1041.54,1499.21 1044.5,1503.5C 1044.75,1505.67 1045.75,1507.34 1047.5,1508.5C 1051.74,1511.06 1054.4,1514.73 1055.5,1519.5C 1054.5,1519.5 1053.5,1519.5 1052.5,1519.5C 1053.01,1515.33 1051.34,1512.33 1047.5,1510.5C 1046.78,1512.16 1047.11,1513.83 1048.5,1515.5C 1047.68,1516.39 1046.68,1516.72 1045.5,1516.5C 1045.5,1517.5 1045.5,1518.5 1045.5,1519.5C 1044.32,1519.72 1043.32,1519.39 1042.5,1518.5C 1043.61,1517.39 1044.28,1516.06 1044.5,1514.5C 1043.13,1510.79 1041.79,1507.13 1040.5,1503.5C 1039.5,1503.5 1038.5,1503.5 1037.5,1503.5C 1036.47,1499.53 1035.47,1495.53 1034.5,1491.5 Z"/></g>
<g><path style="opacity:1" fill="#838383" d="M 1317.5,1507.5 C 1318.46,1509.26 1318.79,1511.26 1318.5,1513.5C 1309.83,1513.5 1301.17,1513.5 1292.5,1513.5C 1292.5,1518.17 1292.5,1522.83 1292.5,1527.5C 1292.17,1527.5 1291.83,1527.5 1291.5,1527.5C 1291.5,1522.5 1291.5,1517.5 1291.5,1512.5C 1300.17,1512.5 1308.83,1512.5 1317.5,1512.5C 1317.5,1510.83 1317.5,1509.17 1317.5,1507.5 Z"/></g>
<g><path style="opacity:1" fill="#212121" d="M 1245.5,1513.5 C 1250.51,1513.33 1255.51,1513.5 1260.5,1514C 1265.63,1515.16 1267.46,1518.33 1266,1523.5C 1264.96,1524.71 1263.79,1525.71 1262.5,1526.5C 1256.83,1526.5 1251.17,1526.5 1245.5,1526.5C 1245.5,1522.17 1245.5,1517.83 1245.5,1513.5 Z"/></g>
<g><path style="opacity:1" fill="#222222" d="M 1446.5,1513.5 C 1461.08,1518.87 1464.58,1528.54 1457,1542.5C 1455.44,1544.36 1453.61,1545.86 1451.5,1547C 1444.92,1548.38 1438.26,1548.88 1431.5,1548.5C 1431.5,1536.83 1431.5,1525.17 1431.5,1513.5C 1436.5,1513.5 1441.5,1513.5 1446.5,1513.5 Z"/></g>
<g><path style="opacity:1" fill="#232323" d="M 1624.5,1513.5 C 1630.58,1513.2 1636.58,1513.7 1642.5,1515C 1646.48,1516.48 1648.15,1519.31 1647.5,1523.5C 1648.15,1527.69 1646.48,1530.52 1642.5,1532C 1636.59,1533.36 1630.59,1533.86 1624.5,1533.5C 1624.5,1526.83 1624.5,1520.17 1624.5,1513.5 Z"/></g>
<g><path style="opacity:1" fill="#935913" d="M 711.5,1513.5 C 710.581,1516.09 708.914,1518.09 706.5,1519.5C 707.419,1516.91 709.086,1514.91 711.5,1513.5 Z"/></g>
<g><path style="opacity:1" fill="#7a7a7a" d="M 1446.5,1513.5 C 1441.5,1513.5 1436.5,1513.5 1431.5,1513.5C 1431.5,1525.17 1431.5,1536.83 1431.5,1548.5C 1430.5,1536.68 1430.17,1524.68 1430.5,1512.5C 1436.03,1512.18 1441.36,1512.51 1446.5,1513.5 Z"/></g>
<g><path style="opacity:1" fill="#614016" d="M 905.5,1507.5 C 903.683,1511.8 901.35,1515.8 898.5,1519.5C 897.778,1520.55 896.778,1521.22 895.5,1521.5C 898.453,1516.55 901.786,1511.88 905.5,1507.5 Z"/></g>
<g><path style="opacity:1" fill="#cbcbcb" d="M 1364.5,1507.5 C 1364.5,1509.17 1364.5,1510.83 1364.5,1512.5C 1369.5,1512.5 1374.5,1512.5 1379.5,1512.5C 1379.5,1526.17 1379.5,1539.83 1379.5,1553.5C 1381.17,1553.5 1382.83,1553.5 1384.5,1553.5C 1384.17,1539.99 1384.5,1526.66 1385.5,1513.5C 1385.5,1527.17 1385.5,1540.83 1385.5,1554.5C 1383.17,1554.5 1380.83,1554.5 1378.5,1554.5C 1378.5,1540.83 1378.5,1527.17 1378.5,1513.5C 1373.5,1513.5 1368.5,1513.5 1363.5,1513.5C 1363.21,1511.26 1363.54,1509.26 1364.5,1507.5 Z"/></g>
<g><path style="opacity:1" fill="#f2f2f2" d="M 1779.5,1545.5 C 1780.48,1542.04 1780.81,1538.37 1780.5,1534.5C 1776.5,1534.5 1772.5,1534.5 1768.5,1534.5C 1768.5,1532.83 1768.5,1531.17 1768.5,1529.5C 1774.17,1529.5 1779.83,1529.5 1785.5,1529.5C 1785.83,1536.2 1785.5,1542.87 1784.5,1549.5C 1773.93,1555.9 1763.26,1556.06 1752.5,1550C 1742.4,1540 1740.9,1528.83 1748,1516.5C 1758.58,1506.29 1770.41,1504.79 1783.5,1512C 1784.17,1512.67 1784.83,1513.33 1785.5,1514C 1784.21,1515.41 1783.05,1516.91 1782,1518.5C 1775.92,1513.86 1769.09,1512.36 1761.5,1514C 1749.87,1520.96 1747.37,1530.46 1754,1542.5C 1761.77,1549.25 1770.27,1550.25 1779.5,1545.5 Z"/></g>
<g><path style="opacity:1" fill="#282828" d="M 1578.5,1535.5 C 1575.85,1536.16 1573.02,1536.5 1570,1536.5C 1566.75,1536.48 1563.92,1535.81 1561.5,1534.5C 1563.9,1528.04 1566.56,1521.71 1569.5,1515.5C 1573.27,1521.82 1576.27,1528.49 1578.5,1535.5 Z"/></g>
<g><path style="opacity:1" fill="#322718" d="M 898.5,1519.5 C 899.598,1520.6 899.765,1521.93 899,1523.5C 896.167,1526.33 893.333,1529.17 890.5,1532C 889.552,1532.48 888.552,1532.65 887.5,1532.5C 888.415,1536.38 887.249,1539.71 884,1542.5C 883.292,1541.62 882.458,1540.95 881.5,1540.5C 883.787,1536.55 886.454,1532.88 889.5,1529.5C 891.587,1528.42 892.92,1526.75 893.5,1524.5C 893.427,1522.97 894.094,1521.97 895.5,1521.5C 896.778,1521.22 897.778,1520.55 898.5,1519.5 Z"/></g>
<g><path style="opacity:1" fill="#6b6b6b" d="M 1245.5,1513.5 C 1245.5,1517.83 1245.5,1522.17 1245.5,1526.5C 1251.17,1526.5 1256.83,1526.5 1262.5,1526.5C 1256.69,1527.49 1250.69,1527.82 1244.5,1527.5C 1244.18,1522.64 1244.51,1517.97 1245.5,1513.5 Z"/></g>
<g><path style="opacity:1" fill="#272727" d="M 1501.5,1535.5 C 1496.36,1536.49 1491.03,1536.82 1485.5,1536.5C 1485.5,1535.17 1485.5,1533.83 1485.5,1532.5C 1487.46,1526.59 1489.96,1520.92 1493,1515.5C 1496.68,1521.85 1499.51,1528.52 1501.5,1535.5 Z"/></g>
<g><path style="opacity:1" fill="#74470c" d="M 893.5,1524.5 C 892.92,1526.75 891.587,1528.42 889.5,1529.5C 890.08,1527.25 891.413,1525.58 893.5,1524.5 Z"/></g>
<g><path style="opacity:1" fill="#898989" d="M 1785.5,1529.5 C 1779.83,1529.5 1774.17,1529.5 1768.5,1529.5C 1768.5,1531.17 1768.5,1532.83 1768.5,1534.5C 1767.54,1532.74 1767.21,1530.74 1767.5,1528.5C 1773.69,1528.18 1779.69,1528.51 1785.5,1529.5 Z"/></g>
<g><path style="opacity:1" fill="#312817" d="M 1060.5,1524.5 C 1062.39,1525.97 1064.06,1527.64 1065.5,1529.5C 1067.15,1532.47 1069.15,1535.14 1071.5,1537.5C 1071.83,1538.17 1072.17,1538.83 1072.5,1539.5C 1069.41,1537.1 1066.08,1534.77 1062.5,1532.5C 1061.61,1533.32 1061.28,1534.32 1061.5,1535.5C 1060.17,1535.5 1058.83,1535.5 1057.5,1535.5C 1056.19,1540.66 1055.69,1540.66 1056,1535.5C 1059.5,1532.7 1061,1529.03 1060.5,1524.5 Z"/></g>
<g><path style="opacity:1" fill="#7d4e0e" d="M 703.5,1523.5 C 701.075,1527.35 698.409,1531.02 695.5,1534.5C 696.946,1529.94 699.613,1526.27 703.5,1523.5 Z"/></g>
<g><path style="opacity:1" fill="#7c7c7c" d="M 1260.5,1533.5 C 1255.5,1533.5 1250.5,1533.5 1245.5,1533.5C 1245.5,1538.5 1245.5,1543.5 1245.5,1548.5C 1244.51,1543.36 1244.18,1538.03 1244.5,1532.5C 1250.03,1532.18 1255.36,1532.51 1260.5,1533.5 Z"/></g>
<g><path style="opacity:1" fill="#c1c1c1" d="M 1291.5,1527.5 C 1291.83,1527.5 1292.17,1527.5 1292.5,1527.5C 1300.17,1527.5 1307.83,1527.5 1315.5,1527.5C 1315.5,1529.5 1315.5,1531.5 1315.5,1533.5C 1307.5,1533.5 1299.5,1533.5 1291.5,1533.5C 1298.98,1532.51 1306.65,1532.17 1314.5,1532.5C 1314.5,1531.17 1314.5,1529.83 1314.5,1528.5C 1306.65,1528.83 1298.98,1528.49 1291.5,1527.5 Z"/></g>
<g><path style="opacity:1" fill="#232323" d="M 1260.5,1533.5 C 1267.43,1534 1269.93,1537.67 1268,1544.5C 1266.79,1546.05 1265.29,1547.22 1263.5,1548C 1257.51,1548.5 1251.51,1548.67 1245.5,1548.5C 1245.5,1543.5 1245.5,1538.5 1245.5,1533.5C 1250.5,1533.5 1255.5,1533.5 1260.5,1533.5 Z"/></g>
<g><path style="opacity:1" fill="#4d4d4d" d="M 1291.5,1533.5 C 1299.5,1533.5 1307.5,1533.5 1315.5,1533.5C 1308.02,1534.49 1300.35,1534.83 1292.5,1534.5C 1292.5,1539.17 1292.5,1543.83 1292.5,1548.5C 1292.17,1548.5 1291.83,1548.5 1291.5,1548.5C 1291.5,1543.5 1291.5,1538.5 1291.5,1533.5 Z"/></g>
<g><path style="opacity:1" fill="#595959" d="M 1485.5,1532.5 C 1485.5,1533.83 1485.5,1535.17 1485.5,1536.5C 1491.03,1536.82 1496.36,1536.49 1501.5,1535.5C 1502.04,1535.56 1502.38,1535.89 1502.5,1536.5C 1496.17,1537.83 1489.83,1537.83 1483.5,1536.5C 1483.99,1534.97 1484.66,1533.64 1485.5,1532.5 Z"/></g>
<g><path style="opacity:1" fill="#5e5e5e" d="M 1561.5,1534.5 C 1563.92,1535.81 1566.75,1536.48 1570,1536.5C 1573.02,1536.5 1575.85,1536.16 1578.5,1535.5C 1579.04,1535.56 1579.38,1535.89 1579.5,1536.5C 1573.2,1537.5 1566.87,1537.83 1560.5,1537.5C 1560.26,1536.21 1560.6,1535.21 1561.5,1534.5 Z"/></g>
<g><path style="opacity:1" fill="#454545" d="M 1643.5,1538.5 C 1643.08,1539.22 1642.42,1539.72 1641.5,1540C 1636.18,1540.5 1630.84,1540.67 1625.5,1540.5C 1625.82,1545.36 1625.49,1550.03 1624.5,1554.5C 1624.5,1549.5 1624.5,1544.5 1624.5,1539.5C 1630.86,1539.52 1637.19,1539.19 1643.5,1538.5 Z"/></g>
<g><path style="opacity:1" fill="#999999" d="M 1768.5,1534.5 C 1772.5,1534.5 1776.5,1534.5 1780.5,1534.5C 1780.81,1538.37 1780.48,1542.04 1779.5,1545.5C 1779.5,1542.17 1779.5,1538.83 1779.5,1535.5C 1775.63,1535.81 1771.96,1535.48 1768.5,1534.5 Z"/></g>
<g><path style="opacity:1" fill="#d98614" d="M 881.5,1540.5 C 881.573,1542.03 880.906,1543.03 879.5,1543.5C 816.331,1543.83 753.331,1543.5 690.5,1542.5C 753.501,1542.67 816.501,1542.5 879.5,1542C 880.044,1541.28 880.711,1540.78 881.5,1540.5 Z"/></g>
<g><path style="opacity:1" fill="#724b16" d="M 695.5,1534.5 C 693.86,1537.15 692.193,1539.82 690.5,1542.5C 753.331,1543.5 816.331,1543.83 879.5,1543.5C 877.052,1544.47 874.385,1544.81 871.5,1544.5C 815.5,1544.5 759.5,1544.5 703.5,1544.5C 698.833,1544.5 694.167,1544.5 689.5,1544.5C 689.955,1540.26 691.955,1536.92 695.5,1534.5 Z"/></g>
<g><path style="opacity:1" fill="#24221b" d="M 703.5,1544.5 C 759.5,1544.5 815.5,1544.5 871.5,1544.5C 871.539,1545.58 871.873,1546.58 872.5,1547.5C 871.667,1547.83 870.833,1548.17 870,1548.5C 868.955,1547.32 867.455,1546.32 865.5,1545.5C 865.5,1546.5 865.5,1547.5 865.5,1548.5C 816.829,1548.83 768.162,1548.5 719.5,1547.5C 767.497,1546.67 815.497,1546.17 863.5,1546C 809.998,1545.83 756.665,1545.33 703.5,1544.5 Z"/></g>
<g><path style="opacity:1" fill="#b2b2b2" d="M 1285.5,1507.5 C 1285.5,1522.83 1285.5,1538.17 1285.5,1553.5C 1296.17,1553.5 1306.83,1553.5 1317.5,1553.5C 1317.5,1552.17 1317.5,1550.83 1317.5,1549.5C 1308.65,1549.83 1299.98,1549.49 1291.5,1548.5C 1291.83,1548.5 1292.17,1548.5 1292.5,1548.5C 1301.17,1548.5 1309.83,1548.5 1318.5,1548.5C 1318.5,1550.5 1318.5,1552.5 1318.5,1554.5C 1307.17,1554.5 1295.83,1554.5 1284.5,1554.5C 1284.17,1538.66 1284.5,1522.99 1285.5,1507.5 Z"/></g>
<g><path style="opacity:1" fill="#b5b5b5" d="M 1668.5,1507.5 C 1669.5,1520.99 1669.83,1534.66 1669.5,1548.5C 1676.17,1548.5 1682.83,1548.5 1689.5,1548.5C 1689.5,1550.5 1689.5,1552.5 1689.5,1554.5C 1680.32,1554.83 1671.32,1554.49 1662.5,1553.5C 1671.17,1553.5 1679.83,1553.5 1688.5,1553.5C 1688.5,1552.17 1688.5,1550.83 1688.5,1549.5C 1681.83,1549.5 1675.17,1549.5 1668.5,1549.5C 1668.5,1535.5 1668.5,1521.5 1668.5,1507.5 Z"/></g>
</svg>
